<svg xmlns="http://www.w3.org/2000/svg" xmlns:xlink="http://www.w3.org/1999/xlink" width="80" zoomAndPan="magnify" viewBox="0 0 60 60" height="80" preserveAspectRatio="xMidYMid meet" version="1.0"><defs><g/><clipPath id="0aa8e37b06"><path d="M 24 18.96875 L 26 18.96875 L 26 21 L 24 21 Z M 24 18.96875 " clip-rule="nonzero"/></clipPath><clipPath id="9c6e3fef22"><path d="M 18.125 19 L 40 19 L 40 31 L 18.125 31 Z M 18.125 19 " clip-rule="nonzero"/></clipPath><clipPath id="4c907ba0e7"><path d="M 36 26 L 42.125 26 L 42.125 30 L 36 30 Z M 36 26 " clip-rule="nonzero"/></clipPath><clipPath id="78af3550cb"><path d="M 18.125 28 L 42 28 L 42 32.46875 L 18.125 32.46875 Z M 18.125 28 " clip-rule="nonzero"/></clipPath><clipPath id="b117712d52"><path d="M 34 28 L 37 28 L 37 32.46875 L 34 32.46875 Z M 34 28 " clip-rule="nonzero"/></clipPath><clipPath id="10918e2cba"><path d="M 18.125 29 L 20 29 L 20 32.46875 L 18.125 32.46875 Z M 18.125 29 " clip-rule="nonzero"/></clipPath><clipPath id="2ec6ff5e1a"><path d="M 18.125 29 L 38 29 L 38 32.46875 L 18.125 32.46875 Z M 18.125 29 " clip-rule="nonzero"/></clipPath></defs><path fill="#000000" d="M 24.199219 20.15625 C 24.183594 19.875 24.148438 19.765625 24.242188 19.574219 C 24.40625 19.242188 24.765625 18.984375 24.917969 19.011719 C 25.15625 19.050781 25.136719 19.203125 25.320312 19.390625 C 25.507812 19.582031 25.8125 20.046875 25.8125 20.046875 Z M 24.199219 20.15625 " fill-opacity="1" fill-rule="nonzero"/><g clip-path="url(#0aa8e37b06)"><path stroke-linecap="butt" transform="matrix(0.0291275, 0, 0, 0.0281309, 17.759362, 12.755108)" fill="none" stroke-linejoin="miter" d="M 221.092068 263.096872 C 220.555633 253.098956 219.348655 249.210878 222.567264 242.40674 C 228.19983 230.603645 240.537831 221.438888 245.768071 222.410908 C 253.948702 223.799507 253.278159 229.215045 259.581268 235.880323 C 266.018487 242.68446 276.478966 259.208794 276.478966 259.208794 Z M 221.092068 263.096872 " stroke="#000000" stroke-width="1" stroke-opacity="1" stroke-miterlimit="4"/></g><g clip-path="url(#9c6e3fef22)"><path stroke-linecap="butt" transform="matrix(0.0291275, 0, 0, 0.0281309, 17.759362, 12.755108)" fill-opacity="1" fill="#000000" fill-rule="nonzero" stroke-linejoin="miter" d="M 57.077112 243.79534 C 57.077112 243.79534 63.514331 318.779711 49.298807 418.064573 C 36.022044 509.989857 29.316609 505.268619 27.170869 536.650967 C 25.02513 568.033315 29.316609 619.550355 29.316609 619.550355 C 29.316609 619.550355 350.775193 626.632212 439.286943 621.633254 C 527.798693 616.634296 740.763329 580.25299 740.763329 580.25299 C 740.763329 580.25299 739.288133 553.036441 710.052434 538.039567 C 680.682626 523.042692 623.552314 518.043734 590.025136 505.962919 C 556.363849 493.743244 455.648206 469.442753 403.614026 403.067698 C 351.445736 336.692644 304.775904 258.514494 282.111532 248.099998 C 261.190573 250.877197 217.202915 253.793256 161.413691 252.404656 C 105.758575 250.877197 57.077112 243.79534 57.077112 243.79534 Z M 57.077112 243.79534 " stroke="#000000" stroke-width="1" stroke-opacity="1" stroke-miterlimit="4"/></g><path stroke-linecap="butt" transform="matrix(0.0291275, 0, 0, 0.0281309, 17.884201, 12.775193)" fill-opacity="1" fill="#ffffff" fill-rule="nonzero" stroke-linejoin="miter" d="M 236.385976 407.769256 C 236.385976 447.760921 202.858798 480.254148 161.419206 480.254148 C 119.979614 480.254148 86.452436 447.760921 86.452436 407.769256 C 86.452436 367.638732 119.979614 335.284364 161.419206 335.284364 C 202.858798 335.284364 236.385976 367.638732 236.385976 407.769256 Z M 236.385976 407.769256 " stroke="#d8d8d8" stroke-width="1" stroke-opacity="1" stroke-miterlimit="4"/><path stroke-linecap="butt" transform="matrix(0.00451097, 0, 0, 0.00422976, 25.765344, 27.205932)" fill="none" stroke-linejoin="miter" d="M 236.46483 407.530616 C 236.46483 448.165341 202.693028 480.488417 161.127732 480.488417 C 120.42838 480.488417 86.656577 448.165341 86.656577 407.530616 C 86.656577 367.819407 120.42838 335.496331 161.127732 335.496331 C 202.693028 335.496331 236.46483 367.819407 236.46483 407.530616 Z M 236.46483 407.530616 " stroke="#ffffff" stroke-width="48.764999" stroke-opacity="1" stroke-miterlimit="4"/><path stroke-linecap="butt" transform="matrix(0.00451097, 0, 0, 0.00422976, 28.141273, 27.171893)" fill="none" stroke-linejoin="miter" d="M 236.258919 407.266522 C 236.258919 447.901247 202.487116 480.224324 161.787764 480.224324 C 120.222469 480.224324 86.450666 447.901247 86.450666 407.266522 C 86.450666 367.555314 120.222469 335.232237 161.787764 335.232237 C 202.487116 335.232237 236.258919 367.555314 236.258919 407.266522 Z M 236.258919 407.266522 " stroke="#ffffff" stroke-width="48.764999" stroke-opacity="1" stroke-miterlimit="4"/><path stroke-linecap="butt" transform="matrix(0.00435864, 0.0025239, -0.00200543, 0.00348373, 26.27886, 19.181885)" fill="none" stroke-linejoin="miter" d="M 236.532606 407.709757 C 236.346834 448.210609 202.759003 480.393423 161.392796 480.087847 C 120.026588 479.782272 86.564857 447.960479 86.750629 407.459628 C 86.264246 367.445741 119.852077 335.262927 161.218285 335.568502 C 203.256647 335.387113 236.046223 367.695871 236.532606 407.709757 Z M 236.532606 407.709757 " stroke="#ffffff" stroke-width="48.766998" stroke-opacity="1" stroke-miterlimit="4"/><path stroke-linecap="butt" transform="matrix(0.00435864, 0.0025239, -0.00200543, 0.00348373, 27.21502, 20.819382)" fill="none" stroke-linejoin="miter" d="M 236.686132 407.375028 C 236.50036 447.875879 202.912529 480.058693 161.546321 479.753118 C 119.894889 480.775468 86.718383 447.62575 86.232 407.611863 C 86.804702 367.951973 120.005603 334.928197 161.371811 335.233773 C 202.738018 335.539349 236.199749 367.361141 236.686132 407.375028 Z M 236.686132 407.375028 " stroke="#ffffff" stroke-width="48.766998" stroke-opacity="1" stroke-miterlimit="4"/><path stroke-linecap="butt" transform="matrix(0.00435864, 0.0025239, -0.00200543, 0.00348373, 28.255161, 22.306378)" fill="none" stroke-linejoin="miter" d="M 236.627802 407.78628 C 236.44203 448.287132 202.854199 480.469946 161.487991 480.16437 C 120.121784 479.858795 86.660053 448.037002 86.17367 408.023116 C 86.359442 367.522264 119.947273 335.33945 161.313481 335.645026 C 202.964913 334.622676 236.141419 367.772394 236.627802 407.78628 Z M 236.627802 407.78628 " stroke="#ffffff" stroke-width="48.766998" stroke-opacity="1" stroke-miterlimit="4"/><path stroke-linecap="butt" transform="matrix(0.00434233, 0.00259423, -0.00199785, 0.0035805, 29.627939, 23.571706)" fill="none" stroke-linejoin="miter" d="M 236.362279 407.666173 C 236.797684 447.716964 203.000642 479.841277 161.801509 480.23541 C 120.225921 479.811322 86.482193 447.529184 86.046788 407.478393 C 86.662509 367.756995 120.083096 334.81446 161.658684 335.238549 C 202.857817 334.844416 236.601545 367.126553 236.362279 407.666173 Z M 236.362279 407.666173 " stroke="#ffffff" stroke-width="48.766998" stroke-opacity="1" stroke-miterlimit="4"/><path stroke-linecap="butt" transform="matrix(0.00474283, 0.00182654, -0.00132384, 0.00386124, 30.878092, 24.523653)" fill="none" stroke-linejoin="miter" d="M 236.756125 407.939438 C 236.298737 447.610402 202.706804 480.699022 161.340574 480.033937 C 120.223788 480.262512 86.424103 447.69174 86.632047 407.127116 C 86.361887 367.800314 120.203264 335.605354 161.320051 335.376779 C 202.436837 335.148205 236.236522 367.718977 236.756125 407.939438 Z M 236.756125 407.939438 " stroke="#ffffff" stroke-width="48.766998" stroke-opacity="1" stroke-miterlimit="4"/><path stroke-linecap="butt" transform="matrix(0.0046336, 0.00148418, -0.00129326, 0.00313743, 32.622538, 25.543115)" fill="none" stroke-linejoin="miter" d="M 236.445594 407.285294 C 236.894429 448.159478 202.905219 480.423894 161.503325 480.088603 C 120.101432 479.753312 86.84027 448.175987 86.391435 407.301802 C 86.249568 367.52745 120.238778 335.263034 161.640672 335.598326 C 202.735597 334.833785 236.303727 367.510942 236.445594 407.285294 Z M 236.445594 407.285294 " stroke="#ffffff" stroke-width="48.766998" stroke-opacity="1" stroke-miterlimit="4"/><path stroke-linecap="butt" transform="matrix(0.0046336, 0.00148418, -0.00129326, 0.00313743, 34.370184, 25.99124)" fill="none" stroke-linejoin="miter" d="M 236.235567 407.733306 C 236.377434 447.507658 202.695192 480.871906 161.293298 480.536615 C 119.891405 480.201323 86.323275 447.524166 86.181408 407.749814 C 86.784243 367.623176 120.028751 335.711046 161.123676 334.946505 C 202.52557 335.281796 236.0937 367.958953 236.235567 407.733306 Z M 236.235567 407.733306 " stroke="#ffffff" stroke-width="48.766998" stroke-opacity="1" stroke-miterlimit="4"/><path stroke-linecap="butt" transform="matrix(0.00483021, 0.000623099, -0.000709546, 0.00301056, 35.906369, 26.565111)" fill="none" stroke-linejoin="miter" d="M 236.246716 408.259103 C 236.302093 447.173063 203.1137 479.992368 161.19164 480.88392 C 119.869453 480.353802 86.85038 448.26236 86.610025 408.089171 C 86.369671 367.915982 120.342914 334.934236 161.665101 335.464354 C 202.802311 334.735243 236.791211 367.923473 236.246716 408.259103 Z M 236.246716 408.259103 " stroke="#ffffff" stroke-width="48.766998" stroke-opacity="1" stroke-miterlimit="4"/><path fill="#ffffff" d="M 41.25 28.398438 C 41.0625 28.058594 40.804688 27.789062 40.4375 27.699219 C 39.679688 27.519531 38.222656 27.644531 37.773438 27.695312 C 37.328125 27.746094 38.707031 28.785156 39.25 29.085938 C 39.632812 28.933594 41.015625 28.703125 41.25 28.398438 Z M 41.25 28.398438 " fill-opacity="1" fill-rule="nonzero"/><g clip-path="url(#4c907ba0e7)"><path stroke-linecap="butt" transform="matrix(0.0291275, 0, 0, 0.0281309, 17.759362, 12.755108)" fill="none" stroke-linejoin="miter" d="M 806.476598 556.09136 C 800.03938 544.010544 791.188205 534.429208 778.581986 531.235429 C 752.564896 524.847872 702.542346 529.29139 687.119844 531.096569 C 671.831451 532.901748 719.171826 569.838494 737.812937 580.53071 C 750.955591 575.115172 798.430075 566.922435 806.476598 556.09136 Z M 806.476598 556.09136 " stroke="#000000" stroke-width="5" stroke-opacity="1" stroke-miterlimit="4"/></g><g clip-path="url(#78af3550cb)"><path stroke-linecap="butt" transform="matrix(0.0291275, 0, 0, 0.0281309, 17.759362, 12.755108)" fill-opacity="1" fill="#ffffff" fill-rule="nonzero" stroke-linejoin="round" d="M 21.135977 602.609442 C 21.135977 602.609442 222.433155 610.663319 365.527151 608.719279 C 507.414169 606.63638 731.375719 583.724489 807.147142 548.037483 C 809.42699 554.98048 817.74173 561.368038 820.558013 569.283055 C 823.910731 578.725531 833.566558 616.495436 827.799883 630.798011 C 822.033209 645.100585 728.559436 668.151337 657.079492 679.537852 C 585.733657 691.063228 489.845928 691.063228 414.208614 691.063228 C 338.437191 691.063228 174.154018 699.950264 111.391141 698.006225 C 48.360046 695.923326 29.450718 690.646648 17.246825 680.787592 C 15.369303 663.152378 21.135977 602.609442 21.135977 602.609442 Z M 21.135977 602.609442 " stroke="#000000" stroke-width="5" stroke-opacity="1" stroke-miterlimit="4"/></g><g clip-path="url(#b117712d52)"><path stroke-linecap="butt" transform="matrix(0.0291275, 0, 0, 0.0281309, 17.759362, 12.755108)" fill="none" stroke-linejoin="miter" d="M 605.715855 590.528626 C 613.225943 620.938955 621.808901 662.041499 623.95464 684.81453 " stroke="#000000" stroke-width="6" stroke-opacity="1" stroke-miterlimit="4"/></g><g clip-path="url(#10918e2cba)"><path stroke-linecap="butt" transform="matrix(0.0291275, 0, 0, 0.0281309, 17.759362, 12.755108)" fill="none" stroke-linejoin="miter" d="M 20.733651 614.551397 L 35.351501 617.050876 L 34.680957 689.119188 " stroke="#000000" stroke-width="5" stroke-opacity="1" stroke-miterlimit="4"/></g><g clip-path="url(#2ec6ff5e1a)"><path stroke-linecap="butt" transform="matrix(0.0291275, 0, 0, 0.0281309, 17.759362, 12.755108)" fill="none" stroke-linejoin="miter" d="M 34.680957 660.514039 C 34.680957 660.514039 51.04222 667.040457 77.327528 667.457037 C 103.478727 668.012477 235.307591 664.540978 275.808423 664.402118 C 311.615449 664.402118 440.359813 662.596939 488.907167 660.37518 C 541.477782 658.15342 619.260835 649.266384 619.260835 649.266384 " stroke="#000000" stroke-width="8" stroke-opacity="1" stroke-miterlimit="4"/></g><path stroke-linecap="round" transform="matrix(0.0291275, 0, 0, 0.0281309, 17.759362, 12.755108)" fill="none" stroke-linejoin="miter" d="M 234.36883 256.015015 C 270.041748 313.503033 277.685944 364.742353 328.781364 422.230371 C 379.742675 479.579529 421.182267 514.849955 491.455232 532.901748 C 561.862306 550.953542 714.880347 570.116214 714.880347 570.116214 " stroke="#ffffff" stroke-width="4.874" stroke-opacity="1" stroke-miterlimit="4"/><path stroke-linecap="butt" transform="matrix(0.0291275, 0, 0, 0.0281309, 17.759362, 12.755108)" fill-opacity="1" fill="#ffffff" fill-rule="nonzero" stroke-linejoin="round" d="M 285.732467 289.063682 C 287.341772 294.2015 288.54875 295.03466 290.292163 297.950719 C 312.956536 296.839839 315.63871 287.952803 330.524777 287.952803 C 329.720125 283.092705 322.612363 271.428469 316.577471 268.37355 C 300.082099 272.400489 296.86349 275.871987 285.732467 289.063682 Z M 285.732467 289.063682 " stroke="#000000" stroke-width="3" stroke-opacity="1" stroke-miterlimit="4"/><path stroke-linecap="butt" transform="matrix(0.0291275, 0, 0, 0.0281309, 17.759362, 12.755108)" fill-opacity="1" fill="#ffffff" fill-rule="nonzero" stroke-linejoin="round" d="M 317.113906 346.82942 C 318.857319 351.967238 321.003059 352.800398 322.746472 355.716457 C 345.410844 354.605577 348.093019 346.96828 363.113194 346.82942 C 362.308542 342.108182 355.066672 330.305086 349.03178 327.250168 C 332.536408 331.277106 328.379038 333.776585 317.113906 346.82942 Z M 317.113906 346.82942 " stroke="#000000" stroke-width="3" stroke-opacity="1" stroke-miterlimit="4"/><path stroke-linecap="butt" transform="matrix(0.0291275, 0, 0, 0.0281309, 17.759362, 12.755108)" fill-opacity="1" fill="#ffffff" fill-rule="nonzero" stroke-linejoin="round" d="M 355.871324 398.62418 C 357.614737 403.761998 356.944194 405.706037 358.687607 408.622096 C 377.194609 394.041802 386.314002 393.486362 398.383786 384.460466 C 397.579134 379.600367 391.141915 370.852191 385.107023 367.658412 C 368.611652 371.82421 367.002347 385.432485 355.871324 398.62418 Z M 355.871324 398.62418 " stroke="#000000" stroke-width="3" stroke-opacity="1" stroke-miterlimit="4"/><path stroke-linecap="butt" transform="matrix(0.0291275, 0, 0, 0.0281309, 17.759362, 12.755108)" fill-opacity="1" fill="#ffffff" fill-rule="nonzero" stroke-linejoin="round" d="M 400.261308 446.392002 C 402.004721 451.39096 403.077591 452.362979 404.955113 455.279038 C 421.584593 451.66868 432.715616 436.671805 440.62803 432.228287 C 439.823378 427.368189 433.117942 422.508091 427.08305 419.453172 C 410.587679 423.480111 399.99309 438.476985 400.261308 446.392002 Z M 400.261308 446.392002 " stroke="#000000" stroke-width="3" stroke-opacity="1" stroke-miterlimit="4"/><path stroke-linecap="butt" transform="matrix(0.0291275, 0, 0, 0.0281309, 17.759362, 12.755108)" fill-opacity="1" fill="#ffffff" fill-rule="nonzero" stroke-linejoin="round" d="M 453.502467 481.106988 C 455.24588 486.244806 457.391619 486.661386 462.353642 487.772266 C 478.044361 478.746369 478.044361 467.776434 480.994753 459.028257 C 480.1901 454.307019 468.656751 451.80754 462.621859 448.752621 C 457.391619 461.250016 458.196272 472.081092 453.502467 481.106988 Z M 453.502467 481.106988 " stroke="#000000" stroke-width="3" stroke-opacity="1" stroke-miterlimit="4"/><path stroke-linecap="butt" transform="matrix(0.0291275, 0, 0, 0.0281309, 17.759362, 12.755108)" fill-opacity="1" fill="#ffffff" fill-rule="nonzero" stroke-linejoin="round" d="M 511.839757 506.518359 C 515.594801 508.740118 519.886279 509.850997 524.848302 509.989857 C 529.139781 497.353602 530.480868 486.800246 530.21265 477.63549 C 527.798693 473.330831 516.399453 469.859333 509.559909 469.026173 C 513.985496 479.301809 513.180844 496.520442 511.839757 506.518359 Z M 511.839757 506.518359 " stroke="#000000" stroke-width="3" stroke-opacity="1" stroke-miterlimit="4"/><path stroke-linecap="butt" transform="matrix(0.0291275, 0, 0, 0.0281309, 17.759362, 12.755108)" fill-opacity="1" fill="#ffffff" fill-rule="nonzero" stroke-linejoin="round" d="M 572.99333 522.903832 C 576.882482 526.514191 579.430548 527.208491 584.124353 525.681031 C 590.829788 515.960835 587.208853 504.574319 583.453809 499.297641 C 580.369309 495.548423 573.261547 493.743244 566.422003 494.159823 C 567.092546 503.74116 569.640612 512.628196 572.99333 522.903832 Z M 572.99333 522.903832 " stroke="#000000" stroke-width="3" stroke-opacity="1" stroke-miterlimit="4"/><path stroke-linecap="butt" transform="matrix(0.0291275, 0, 0, 0.0281309, 17.759362, 12.755108)" fill-opacity="1" fill="#ffffff" fill-rule="nonzero" stroke-linejoin="round" d="M 634.549229 536.789827 C 638.57249 540.261326 640.718229 539.567026 645.546143 538.039567 C 651.446926 530.679989 650.642274 526.097611 648.094209 519.015754 C 645.009708 515.266535 632.805815 512.489336 625.966271 512.905916 C 627.173249 518.460314 634.012794 526.653051 634.549229 536.789827 Z M 634.549229 536.789827 " stroke="#000000" stroke-width="3" stroke-opacity="1" stroke-miterlimit="4"/><g fill="#000000" fill-opacity="1"><g transform="translate(17.219148, 36.750171)"><g><path d="M 0.09375 -2.25 L 2.421875 -2.25 L 2.421875 -2.046875 L 1.21875 -2.046875 L 1.21875 -1.21875 L 1.8125 -1.21875 L 1.8125 -1.03125 L 1.21875 -1.03125 L 1.21875 -0.1875 L 2.421875 -0.1875 L 2.421875 0 L 0.09375 0 Z M 0.09375 -2.25 "/></g></g></g><g fill="#000000" fill-opacity="1"><g transform="translate(19.72797, 36.750171)"><g><path d="M 0.109375 -1.46875 L 1.578125 -1.46875 L 1.578125 -0.78125 L 0.109375 -0.78125 Z M 0.109375 -1.46875 "/></g></g></g><g fill="#000000" fill-opacity="1"><g transform="translate(21.411184, 36.750171)"><g><path d="M 1.78125 -1.4375 C 2.03125 -1.363281 2.21875 -1.269531 2.34375 -1.15625 C 2.476562 -1.050781 2.546875 -0.910156 2.546875 -0.734375 C 2.546875 -0.585938 2.5 -0.457031 2.40625 -0.34375 C 2.3125 -0.226562 2.175781 -0.140625 2 -0.078125 C 1.832031 -0.015625 1.625 0.015625 1.375 0.015625 C 1.082031 0.015625 0.820312 -0.0195312 0.59375 -0.09375 C 0.375 -0.175781 0.203125 -0.269531 0.078125 -0.375 L 0.1875 -0.515625 C 0.300781 -0.429688 0.441406 -0.359375 0.609375 -0.296875 C 0.773438 -0.234375 0.957031 -0.203125 1.15625 -0.203125 C 1.28125 -0.203125 1.375 -0.21875 1.4375 -0.25 C 1.5 -0.289062 1.53125 -0.34375 1.53125 -0.40625 C 1.53125 -0.519531 1.414062 -0.609375 1.1875 -0.671875 L 0.78125 -0.796875 C 0.550781 -0.867188 0.375 -0.960938 0.25 -1.078125 C 0.125 -1.203125 0.0625 -1.347656 0.0625 -1.515625 C 0.0625 -1.648438 0.101562 -1.773438 0.1875 -1.890625 C 0.28125 -2.003906 0.410156 -2.09375 0.578125 -2.15625 C 0.742188 -2.226562 0.945312 -2.265625 1.1875 -2.265625 C 1.40625 -2.265625 1.609375 -2.238281 1.796875 -2.1875 C 1.992188 -2.132812 2.148438 -2.070312 2.265625 -2 L 2.15625 -1.84375 C 2.0625 -1.90625 1.941406 -1.957031 1.796875 -2 C 1.660156 -2.039062 1.515625 -2.0625 1.359375 -2.0625 C 1.222656 -2.0625 1.117188 -2.039062 1.046875 -2 C 0.972656 -1.957031 0.9375 -1.898438 0.9375 -1.828125 C 0.9375 -1.773438 0.960938 -1.726562 1.015625 -1.6875 C 1.078125 -1.644531 1.179688 -1.601562 1.328125 -1.5625 Z M 1.78125 -1.4375 "/></g></g></g><g fill="#000000" fill-opacity="1"><g transform="translate(24.019209, 36.750171)"><g><path d="M 0.09375 -2.25 L 1.03125 -2.25 L 1.96875 -1.125 L 1.96875 -2.25 L 2.15625 -2.25 L 2.15625 0 L 1.40625 0 L 0.28125 -1.5 L 0.28125 0 L 0.09375 0 Z M 0.09375 -2.25 "/></g></g></g><g fill="#000000" fill-opacity="1"><g transform="translate(26.265628, 36.750171)"><g><path d="M 0.09375 -2.25 L 2.421875 -2.25 L 2.421875 -2.046875 L 1.21875 -2.046875 L 1.21875 -1.21875 L 1.8125 -1.21875 L 1.8125 -1.03125 L 1.21875 -1.03125 L 1.21875 -0.1875 L 2.421875 -0.1875 L 2.421875 0 L 0.09375 0 Z M 0.09375 -2.25 "/></g></g></g><g fill="#000000" fill-opacity="1"><g transform="translate(28.77445, 36.750171)"><g><path d="M 0.90625 -2.25 L 1.84375 -2.25 L 2.828125 0 L 1.625 0 L 1.28125 -0.75 L 0.578125 -0.75 L 0.296875 0 L 0.0625 0 Z M 1.1875 -0.9375 L 0.90625 -1.59375 L 0.65625 -0.9375 Z M 1.1875 -0.9375 "/></g></g></g><g fill="#000000" fill-opacity="1"><g transform="translate(31.660876, 36.750171)"><g><path d="M 0.09375 -2.25 L 1.21875 -2.25 L 1.21875 0 L 0.09375 0 Z M 1.21875 -1.125 L 1.734375 -2.25 L 2.859375 -2.25 L 2.296875 -1.125 L 3 0 L 1.875 0 Z M 1.21875 -1.125 "/></g></g></g><g fill="#000000" fill-opacity="1"><g transform="translate(34.755303, 36.750171)"><g><path d="M 0.09375 -2.25 L 2.421875 -2.25 L 2.421875 -2.046875 L 1.21875 -2.046875 L 1.21875 -1.21875 L 1.8125 -1.21875 L 1.8125 -1.03125 L 1.21875 -1.03125 L 1.21875 -0.1875 L 2.421875 -0.1875 L 2.421875 0 L 0.09375 0 Z M 0.09375 -2.25 "/></g></g></g><g fill="#000000" fill-opacity="1"><g transform="translate(37.264125, 36.750171)"><g><path d="M 0.09375 -2.25 L 2.234375 -2.25 C 2.335938 -2.25 2.429688 -2.21875 2.515625 -2.15625 C 2.609375 -2.101562 2.679688 -2.03125 2.734375 -1.9375 C 2.785156 -1.851562 2.8125 -1.757812 2.8125 -1.65625 C 2.8125 -1.519531 2.769531 -1.394531 2.6875 -1.28125 C 2.601562 -1.164062 2.492188 -1.09375 2.359375 -1.0625 C 2.472656 -1.03125 2.566406 -0.96875 2.640625 -0.875 C 2.710938 -0.789062 2.75 -0.691406 2.75 -0.578125 L 2.75 0 L 1.6875 0 L 1.6875 -0.6875 C 1.6875 -0.757812 1.671875 -0.816406 1.640625 -0.859375 C 1.609375 -0.898438 1.578125 -0.929688 1.546875 -0.953125 C 1.503906 -0.972656 1.453125 -0.988281 1.390625 -1 C 1.335938 -1.007812 1.285156 -1.019531 1.234375 -1.03125 L 1.15625 -1.03125 L 1.15625 0 L 0.09375 0 Z M 1.265625 -1.21875 C 1.335938 -1.21875 1.40625 -1.234375 1.46875 -1.265625 C 1.539062 -1.304688 1.59375 -1.359375 1.625 -1.421875 C 1.664062 -1.484375 1.6875 -1.554688 1.6875 -1.640625 C 1.6875 -1.710938 1.664062 -1.78125 1.625 -1.84375 C 1.59375 -1.90625 1.539062 -1.957031 1.46875 -2 C 1.40625 -2.039062 1.335938 -2.0625 1.265625 -2.0625 L 1.15625 -2.0625 L 1.15625 -1.203125 Z M 1.265625 -1.21875 "/></g></g></g><g fill="#000000" fill-opacity="1"><g transform="translate(40.166551, 36.750171)"><g><path d="M 1.78125 -1.4375 C 2.03125 -1.363281 2.21875 -1.269531 2.34375 -1.15625 C 2.476562 -1.050781 2.546875 -0.910156 2.546875 -0.734375 C 2.546875 -0.585938 2.5 -0.457031 2.40625 -0.34375 C 2.3125 -0.226562 2.175781 -0.140625 2 -0.078125 C 1.832031 -0.015625 1.625 0.015625 1.375 0.015625 C 1.082031 0.015625 0.820312 -0.0195312 0.59375 -0.09375 C 0.375 -0.175781 0.203125 -0.269531 0.078125 -0.375 L 0.1875 -0.515625 C 0.300781 -0.429688 0.441406 -0.359375 0.609375 -0.296875 C 0.773438 -0.234375 0.957031 -0.203125 1.15625 -0.203125 C 1.28125 -0.203125 1.375 -0.21875 1.4375 -0.25 C 1.5 -0.289062 1.53125 -0.34375 1.53125 -0.40625 C 1.53125 -0.519531 1.414062 -0.609375 1.1875 -0.671875 L 0.78125 -0.796875 C 0.550781 -0.867188 0.375 -0.960938 0.25 -1.078125 C 0.125 -1.203125 0.0625 -1.347656 0.0625 -1.515625 C 0.0625 -1.648438 0.101562 -1.773438 0.1875 -1.890625 C 0.28125 -2.003906 0.410156 -2.09375 0.578125 -2.15625 C 0.742188 -2.226562 0.945312 -2.265625 1.1875 -2.265625 C 1.40625 -2.265625 1.609375 -2.238281 1.796875 -2.1875 C 1.992188 -2.132812 2.148438 -2.070312 2.265625 -2 L 2.15625 -1.84375 C 2.0625 -1.90625 1.941406 -1.957031 1.796875 -2 C 1.660156 -2.039062 1.515625 -2.0625 1.359375 -2.0625 C 1.222656 -2.0625 1.117188 -2.039062 1.046875 -2 C 0.972656 -1.957031 0.9375 -1.898438 0.9375 -1.828125 C 0.9375 -1.773438 0.960938 -1.726562 1.015625 -1.6875 C 1.078125 -1.644531 1.179688 -1.601562 1.328125 -1.5625 Z M 1.78125 -1.4375 "/></g></g></g><g fill="#000000" fill-opacity="1"><g transform="translate(23.06847, 39.973096)"><g><path d="M 0.546875 0.03125 C 0.460938 0.03125 0.378906 0.015625 0.296875 -0.015625 C 0.222656 -0.046875 0.164062 -0.09375 0.125 -0.15625 L 0.234375 -0.296875 C 0.273438 -0.253906 0.320312 -0.21875 0.375 -0.1875 C 0.425781 -0.164062 0.476562 -0.15625 0.53125 -0.15625 C 0.59375 -0.15625 0.640625 -0.164062 0.671875 -0.1875 C 0.710938 -0.21875 0.734375 -0.257812 0.734375 -0.3125 C 0.734375 -0.351562 0.722656 -0.382812 0.703125 -0.40625 C 0.679688 -0.425781 0.65625 -0.441406 0.625 -0.453125 C 0.59375 -0.460938 0.539062 -0.484375 0.46875 -0.515625 C 0.269531 -0.578125 0.171875 -0.6875 0.171875 -0.84375 C 0.171875 -0.945312 0.207031 -1.03125 0.28125 -1.09375 C 0.351562 -1.164062 0.453125 -1.203125 0.578125 -1.203125 C 0.660156 -1.203125 0.734375 -1.191406 0.796875 -1.171875 C 0.859375 -1.148438 0.914062 -1.117188 0.96875 -1.078125 L 0.875 -0.90625 C 0.84375 -0.9375 0.800781 -0.960938 0.75 -0.984375 C 0.707031 -1.003906 0.664062 -1.015625 0.625 -1.015625 C 0.570312 -1.015625 0.523438 -1 0.484375 -0.96875 C 0.453125 -0.945312 0.4375 -0.914062 0.4375 -0.875 C 0.4375 -0.84375 0.445312 -0.8125 0.46875 -0.78125 C 0.5 -0.757812 0.523438 -0.742188 0.546875 -0.734375 C 0.578125 -0.722656 0.628906 -0.707031 0.703125 -0.6875 C 0.796875 -0.65625 0.867188 -0.613281 0.921875 -0.5625 C 0.972656 -0.507812 1 -0.441406 1 -0.359375 C 1 -0.242188 0.957031 -0.148438 0.875 -0.078125 C 0.800781 -0.00390625 0.691406 0.03125 0.546875 0.03125 Z M 0.546875 0.03125 "/></g></g></g><g fill="#000000" fill-opacity="1"><g transform="translate(24.209083, 39.973096)"><g><path d="M 0.953125 -1.203125 C 1.054688 -1.203125 1.140625 -1.171875 1.203125 -1.109375 C 1.273438 -1.046875 1.316406 -0.960938 1.328125 -0.859375 L 1.328125 0 L 1.0625 0 L 1.0625 -0.765625 C 1.050781 -0.828125 1.03125 -0.875 1 -0.90625 C 0.96875 -0.945312 0.914062 -0.972656 0.84375 -0.984375 C 0.769531 -0.984375 0.707031 -0.960938 0.65625 -0.921875 C 0.601562 -0.878906 0.5625 -0.828125 0.53125 -0.765625 C 0.5 -0.703125 0.484375 -0.628906 0.484375 -0.546875 L 0.484375 0 L 0.21875 0 L 0.21875 -2.171875 L 0.484375 -2.171875 L 0.484375 -0.953125 C 0.523438 -1.023438 0.582031 -1.082031 0.65625 -1.125 C 0.738281 -1.175781 0.835938 -1.203125 0.953125 -1.203125 Z M 0.953125 -1.203125 "/></g></g></g><g fill="#000000" fill-opacity="1"><g transform="translate(25.755061, 39.973096)"><g><path d="M 0.125 -0.59375 C 0.125 -0.707031 0.148438 -0.8125 0.203125 -0.90625 C 0.265625 -1 0.34375 -1.070312 0.4375 -1.125 C 0.53125 -1.175781 0.640625 -1.203125 0.765625 -1.203125 C 0.890625 -1.203125 1 -1.175781 1.09375 -1.125 C 1.1875 -1.070312 1.257812 -1 1.3125 -0.90625 C 1.375 -0.8125 1.40625 -0.707031 1.40625 -0.59375 C 1.40625 -0.476562 1.375 -0.375 1.3125 -0.28125 C 1.257812 -0.1875 1.1875 -0.109375 1.09375 -0.046875 C 1 0.00390625 0.890625 0.03125 0.765625 0.03125 C 0.640625 0.03125 0.53125 0.00390625 0.4375 -0.046875 C 0.34375 -0.0976562 0.265625 -0.171875 0.203125 -0.265625 C 0.148438 -0.359375 0.125 -0.46875 0.125 -0.59375 Z M 0.390625 -0.59375 C 0.390625 -0.519531 0.40625 -0.453125 0.4375 -0.390625 C 0.46875 -0.328125 0.507812 -0.273438 0.5625 -0.234375 C 0.625 -0.203125 0.691406 -0.1875 0.765625 -0.1875 C 0.867188 -0.1875 0.957031 -0.222656 1.03125 -0.296875 C 1.101562 -0.378906 1.140625 -0.476562 1.140625 -0.59375 C 1.140625 -0.707031 1.101562 -0.800781 1.03125 -0.875 C 0.957031 -0.945312 0.867188 -0.984375 0.765625 -0.984375 C 0.691406 -0.984375 0.625 -0.960938 0.5625 -0.921875 C 0.507812 -0.890625 0.46875 -0.84375 0.4375 -0.78125 C 0.40625 -0.726562 0.390625 -0.664062 0.390625 -0.59375 Z M 0.390625 -0.59375 "/></g></g></g><g fill="#000000" fill-opacity="1"><g transform="translate(27.278674, 39.973096)"><g><path d="M 0.765625 -0.203125 C 0.867188 -0.203125 0.960938 -0.234375 1.046875 -0.296875 L 1.171875 -0.109375 C 1.109375 -0.0664062 1.039062 -0.03125 0.96875 0 C 0.894531 0.0195312 0.828125 0.03125 0.765625 0.03125 C 0.640625 0.03125 0.523438 0.00390625 0.421875 -0.046875 C 0.328125 -0.0976562 0.253906 -0.171875 0.203125 -0.265625 C 0.148438 -0.359375 0.125 -0.46875 0.125 -0.59375 C 0.125 -0.707031 0.148438 -0.8125 0.203125 -0.90625 C 0.265625 -1 0.34375 -1.070312 0.4375 -1.125 C 0.539062 -1.175781 0.648438 -1.203125 0.765625 -1.203125 C 0.921875 -1.203125 1.046875 -1.15625 1.140625 -1.0625 C 1.242188 -0.976562 1.316406 -0.859375 1.359375 -0.703125 L 0.4375 -0.375 C 0.46875 -0.320312 0.507812 -0.28125 0.5625 -0.25 C 0.625 -0.21875 0.691406 -0.203125 0.765625 -0.203125 Z M 0.75 -1 C 0.644531 -1 0.554688 -0.960938 0.484375 -0.890625 C 0.421875 -0.816406 0.390625 -0.71875 0.390625 -0.59375 C 0.390625 -0.570312 0.390625 -0.550781 0.390625 -0.53125 L 1.0625 -0.78125 C 1.03125 -0.84375 0.988281 -0.894531 0.9375 -0.9375 C 0.882812 -0.976562 0.820312 -1 0.75 -1 Z M 0.75 -1 "/></g></g></g><g fill="#000000" fill-opacity="1"><g transform="translate(28.732396, 39.973096)"><g><path d="M 0.546875 0.03125 C 0.460938 0.03125 0.378906 0.015625 0.296875 -0.015625 C 0.222656 -0.046875 0.164062 -0.09375 0.125 -0.15625 L 0.234375 -0.296875 C 0.273438 -0.253906 0.320312 -0.21875 0.375 -0.1875 C 0.425781 -0.164062 0.476562 -0.15625 0.53125 -0.15625 C 0.59375 -0.15625 0.640625 -0.164062 0.671875 -0.1875 C 0.710938 -0.21875 0.734375 -0.257812 0.734375 -0.3125 C 0.734375 -0.351562 0.722656 -0.382812 0.703125 -0.40625 C 0.679688 -0.425781 0.65625 -0.441406 0.625 -0.453125 C 0.59375 -0.460938 0.539062 -0.484375 0.46875 -0.515625 C 0.269531 -0.578125 0.171875 -0.6875 0.171875 -0.84375 C 0.171875 -0.945312 0.207031 -1.03125 0.28125 -1.09375 C 0.351562 -1.164062 0.453125 -1.203125 0.578125 -1.203125 C 0.660156 -1.203125 0.734375 -1.191406 0.796875 -1.171875 C 0.859375 -1.148438 0.914062 -1.117188 0.96875 -1.078125 L 0.875 -0.90625 C 0.84375 -0.9375 0.800781 -0.960938 0.75 -0.984375 C 0.707031 -1.003906 0.664062 -1.015625 0.625 -1.015625 C 0.570312 -1.015625 0.523438 -1 0.484375 -0.96875 C 0.453125 -0.945312 0.4375 -0.914062 0.4375 -0.875 C 0.4375 -0.84375 0.445312 -0.8125 0.46875 -0.78125 C 0.5 -0.757812 0.523438 -0.742188 0.546875 -0.734375 C 0.578125 -0.722656 0.628906 -0.707031 0.703125 -0.6875 C 0.796875 -0.65625 0.867188 -0.613281 0.921875 -0.5625 C 0.972656 -0.507812 1 -0.441406 1 -0.359375 C 1 -0.242188 0.957031 -0.148438 0.875 -0.078125 C 0.800781 -0.00390625 0.691406 0.03125 0.546875 0.03125 Z M 0.546875 0.03125 "/></g></g></g><g fill="#000000" fill-opacity="1"><g transform="translate(29.87301, 39.973096)"><g/></g></g><g fill="#000000" fill-opacity="1"><g transform="translate(30.756426, 39.973096)"><g><path d="M 0.546875 0.03125 C 0.460938 0.03125 0.378906 0.015625 0.296875 -0.015625 C 0.222656 -0.046875 0.164062 -0.09375 0.125 -0.15625 L 0.234375 -0.296875 C 0.273438 -0.253906 0.320312 -0.21875 0.375 -0.1875 C 0.425781 -0.164062 0.476562 -0.15625 0.53125 -0.15625 C 0.59375 -0.15625 0.640625 -0.164062 0.671875 -0.1875 C 0.710938 -0.21875 0.734375 -0.257812 0.734375 -0.3125 C 0.734375 -0.351562 0.722656 -0.382812 0.703125 -0.40625 C 0.679688 -0.425781 0.65625 -0.441406 0.625 -0.453125 C 0.59375 -0.460938 0.539062 -0.484375 0.46875 -0.515625 C 0.269531 -0.578125 0.171875 -0.6875 0.171875 -0.84375 C 0.171875 -0.945312 0.207031 -1.03125 0.28125 -1.09375 C 0.351562 -1.164062 0.453125 -1.203125 0.578125 -1.203125 C 0.660156 -1.203125 0.734375 -1.191406 0.796875 -1.171875 C 0.859375 -1.148438 0.914062 -1.117188 0.96875 -1.078125 L 0.875 -0.90625 C 0.84375 -0.9375 0.800781 -0.960938 0.75 -0.984375 C 0.707031 -1.003906 0.664062 -1.015625 0.625 -1.015625 C 0.570312 -1.015625 0.523438 -1 0.484375 -0.96875 C 0.453125 -0.945312 0.4375 -0.914062 0.4375 -0.875 C 0.4375 -0.84375 0.445312 -0.8125 0.46875 -0.78125 C 0.5 -0.757812 0.523438 -0.742188 0.546875 -0.734375 C 0.578125 -0.722656 0.628906 -0.707031 0.703125 -0.6875 C 0.796875 -0.65625 0.867188 -0.613281 0.921875 -0.5625 C 0.972656 -0.507812 1 -0.441406 1 -0.359375 C 1 -0.242188 0.957031 -0.148438 0.875 -0.078125 C 0.800781 -0.00390625 0.691406 0.03125 0.546875 0.03125 Z M 0.546875 0.03125 "/></g></g></g><g fill="#000000" fill-opacity="1"><g transform="translate(31.897039, 39.973096)"><g><path d="M 0.59375 -1.671875 L 0.59375 -1.15625 L 0.921875 -1.15625 L 0.921875 -0.953125 L 0.59375 -0.953125 L 0.59375 0 L 0.34375 0 L 0.34375 -0.953125 L 0.125 -0.953125 L 0.125 -1.15625 L 0.34375 -1.15625 L 0.34375 -1.671875 Z M 0.59375 -1.671875 "/></g></g></g><g fill="#000000" fill-opacity="1"><g transform="translate(32.903462, 39.973096)"><g><path d="M 0.125 -0.59375 C 0.125 -0.707031 0.148438 -0.8125 0.203125 -0.90625 C 0.265625 -1 0.34375 -1.070312 0.4375 -1.125 C 0.53125 -1.175781 0.640625 -1.203125 0.765625 -1.203125 C 0.890625 -1.203125 1 -1.175781 1.09375 -1.125 C 1.1875 -1.070312 1.257812 -1 1.3125 -0.90625 C 1.375 -0.8125 1.40625 -0.707031 1.40625 -0.59375 C 1.40625 -0.476562 1.375 -0.375 1.3125 -0.28125 C 1.257812 -0.1875 1.1875 -0.109375 1.09375 -0.046875 C 1 0.00390625 0.890625 0.03125 0.765625 0.03125 C 0.640625 0.03125 0.53125 0.00390625 0.4375 -0.046875 C 0.34375 -0.0976562 0.265625 -0.171875 0.203125 -0.265625 C 0.148438 -0.359375 0.125 -0.46875 0.125 -0.59375 Z M 0.390625 -0.59375 C 0.390625 -0.519531 0.40625 -0.453125 0.4375 -0.390625 C 0.46875 -0.328125 0.507812 -0.273438 0.5625 -0.234375 C 0.625 -0.203125 0.691406 -0.1875 0.765625 -0.1875 C 0.867188 -0.1875 0.957031 -0.222656 1.03125 -0.296875 C 1.101562 -0.378906 1.140625 -0.476562 1.140625 -0.59375 C 1.140625 -0.707031 1.101562 -0.800781 1.03125 -0.875 C 0.957031 -0.945312 0.867188 -0.984375 0.765625 -0.984375 C 0.691406 -0.984375 0.625 -0.960938 0.5625 -0.921875 C 0.507812 -0.890625 0.46875 -0.84375 0.4375 -0.78125 C 0.40625 -0.726562 0.390625 -0.664062 0.390625 -0.59375 Z M 0.390625 -0.59375 "/></g></g></g><g fill="#000000" fill-opacity="1"><g transform="translate(34.427075, 39.973096)"><g><path d="M 0.484375 -0.890625 C 0.503906 -0.953125 0.539062 -1.003906 0.59375 -1.046875 C 0.65625 -1.097656 0.71875 -1.132812 0.78125 -1.15625 C 0.84375 -1.1875 0.894531 -1.203125 0.9375 -1.203125 L 0.9375 -0.953125 C 0.851562 -0.953125 0.773438 -0.929688 0.703125 -0.890625 C 0.628906 -0.859375 0.570312 -0.804688 0.53125 -0.734375 C 0.5 -0.671875 0.484375 -0.601562 0.484375 -0.53125 L 0.484375 0 L 0.21875 0 L 0.21875 -1.15625 L 0.453125 -1.15625 Z M 0.484375 -0.890625 "/></g></g></g><g fill="#000000" fill-opacity="1"><g transform="translate(35.478228, 39.973096)"><g><path d="M 0.765625 -0.203125 C 0.867188 -0.203125 0.960938 -0.234375 1.046875 -0.296875 L 1.171875 -0.109375 C 1.109375 -0.0664062 1.039062 -0.03125 0.96875 0 C 0.894531 0.0195312 0.828125 0.03125 0.765625 0.03125 C 0.640625 0.03125 0.523438 0.00390625 0.421875 -0.046875 C 0.328125 -0.0976562 0.253906 -0.171875 0.203125 -0.265625 C 0.148438 -0.359375 0.125 -0.46875 0.125 -0.59375 C 0.125 -0.707031 0.148438 -0.8125 0.203125 -0.90625 C 0.265625 -1 0.34375 -1.070312 0.4375 -1.125 C 0.539062 -1.175781 0.648438 -1.203125 0.765625 -1.203125 C 0.921875 -1.203125 1.046875 -1.15625 1.140625 -1.0625 C 1.242188 -0.976562 1.316406 -0.859375 1.359375 -0.703125 L 0.4375 -0.375 C 0.46875 -0.320312 0.507812 -0.28125 0.5625 -0.25 C 0.625 -0.21875 0.691406 -0.203125 0.765625 -0.203125 Z M 0.75 -1 C 0.644531 -1 0.554688 -0.960938 0.484375 -0.890625 C 0.421875 -0.816406 0.390625 -0.71875 0.390625 -0.59375 C 0.390625 -0.570312 0.390625 -0.550781 0.390625 -0.53125 L 1.0625 -0.78125 C 1.03125 -0.84375 0.988281 -0.894531 0.9375 -0.9375 C 0.882812 -0.976562 0.820312 -1 0.75 -1 Z M 0.75 -1 "/></g></g></g><path stroke-linecap="round" transform="matrix(0.529669, 0, 0, 0.529182, 14.028442, 35.67935)" fill="none" stroke-linejoin="miter" d="M 0.499419 0.000637865 L 2.896258 0.000637865 " stroke="#000000" stroke-width="1" stroke-opacity="1" stroke-miterlimit="4"/><path stroke-linecap="round" transform="matrix(0.530976, 0, 0, 0.529182, 14.028442, 39.786263)" fill="none" stroke-linejoin="miter" d="M 0.49819 -0.0020908 L 14.247925 -0.0020908 " stroke="#000000" stroke-width="1" stroke-opacity="1" stroke-miterlimit="4"/><path stroke-linecap="round" transform="matrix(0.000000000000000032, -0.525468, 0.529182, 0.000000000000000032, 14.29264, 40.050458)" fill="none" stroke-linejoin="miter" d="M 0.497453 0.000620855 L 7.961037 0.000620855 " stroke="#000000" stroke-width="1" stroke-opacity="1" stroke-miterlimit="4"/><path stroke-linecap="round" transform="matrix(0.529669, 0, 0, 0.529182, 44.172437, 35.414759)" fill="none" stroke-linejoin="miter" d="M 0.500431 -0.00131589 L 2.897269 -0.00131589 " stroke="#000000" stroke-width="1" stroke-opacity="1" stroke-miterlimit="4"/><path stroke-linecap="round" transform="matrix(0.530976, 0, 0, 0.529182, 37.900725, 39.521672)" fill="none" stroke-linejoin="miter" d="M 0.503307 0.00333712 L 14.253042 0.00333712 " stroke="#000000" stroke-width="1" stroke-opacity="1" stroke-miterlimit="4"/><path stroke-linecap="round" transform="matrix(0.000000000000000032, -0.525468, 0.529182, 0.000000000000000032, 45.70657, 39.785871)" fill="none" stroke-linejoin="miter" d="M 0.499428 0.000871447 L 7.963012 0.000871447 " stroke="#000000" stroke-width="1" stroke-opacity="1" stroke-miterlimit="4"/></svg>